# xmcd
#
# Track frame offsets:
#	150
#	20073
#	42052
#	62161
#	89925
#	111373
#	129283
#	148631
#	168883
#	188703
#	208188
#	233312
#	252731
#	271726
#	294344
#
# Disc length: 4247 seconds
#
# Revision: 2
# Processed by: cddbd v1.4PL0 Copyright (c) Steve Scherf et al.
# Submitted via: EasyCDDAExtractor 5.1.0
#
DISCID=da10950f
DTITLE=Vários - Toni Braxton - Best vol.1
DYEAR=1900
DGENRE=R&B
TTITLE0=You're making me high
TTITLE1=There's no me without you
TTITLE2=Unbreak my heart
TTITLE3=Another sad love song
TTITLE4=Breathe again
TTITLE5=Seven whole days
TTITLE6=Talking in his sleep
TTITLE7=Let it flow
TTITLE8=I don't want to
TTITLE9=Candle light
TTITLE10=You mean the world to me
TTITLE11=Best friend
TTITLE12=Come on over here
TTITLE13=Find me a man
TTITLE14=I love me some him
EXTD=
EXTT0=
EXTT1=
EXTT2=
EXTT3=
EXTT4=
EXTT5=
EXTT6=
EXTT7=
EXTT8=
EXTT9=
EXTT10=
EXTT11=
EXTT12=
EXTT13=
EXTT14=
PLAYORDER=
